<svg version="1.1" viewBox="0.0 0.0 960.0 540.0" fill="none" stroke="none" stroke-linecap="square" stroke-miterlimit="10" xmlns:xlink="http://www.w3.org/1999/xlink" xmlns="http://www.w3.org/2000/svg"><clipPath id="p.0"><path d="m0 0l960.0 0l0 540.0l-960.0 0l0 -540.0z" clip-rule="nonzero"/></clipPath><g clip-path="url(#p.0)"><path fill="#ffffff" d="m0 0l960.0 0l0 540.0l-960.0 0z" fill-rule="evenodd"/><defs><radialGradient id="p.1" gradientUnits="userSpaceOnUse" gradientTransform="matrix(4.60197222120268 0.0 0.0 4.60197222120268 0.0 0.0)" spreadMethod="pad" cx="66.86292514529062" cy="55.242658545655935" fx="66.86292514529062" fy="55.242658545655935" r="4.6019721031188965"><stop offset="0.0" stop-color="#3177ee"/><stop offset="1.0" stop-color="#113d8a"/></radialGradient></defs><path fill="url(#p.1)" d="m292.7983 254.22517l0 0c0 -8.310257 6.6723022 -15.047043 14.903015 -15.047043l0 0c3.9525146 0 7.743164 1.5852966 10.538025 4.407181c2.7948608 2.821869 4.36499 6.6491394 4.36499 10.639862l0 0c0 8.310257 -6.6723022 15.047073 -14.903015 15.047073l0 0c-8.230713 0 -14.903015 -6.7368164 -14.903015 -15.047073z" fill-rule="evenodd"/><defs><radialGradient id="p.2" gradientUnits="userSpaceOnUse" gradientTransform="matrix(4.60197222120268 0.0 0.0 4.60197222120268 0.0 0.0)" spreadMethod="pad" cx="69.60372653592152" cy="59.478678735929904" fx="69.60372653592152" fy="59.478678735929904" r="4.6019721031188965"><stop offset="0.0" stop-color="#3177ee"/><stop offset="1.0" stop-color="#113d8a"/></radialGradient></defs><path fill="url(#p.2)" d="m305.4114 273.71924l0 0c0 -8.310272 6.6723022 -15.047058 14.903015 -15.047058l0 0c3.9525146 0 7.743164 1.5852966 10.538025 4.4071655c2.7948608 2.821869 4.36499 6.6491394 4.36499 10.639893l0 0c0 8.310242 -6.6723022 15.047058 -14.903015 15.047058l0 0c-8.230713 0 -14.903015 -6.7368164 -14.903015 -15.047058z" fill-rule="evenodd"/><defs><radialGradient id="p.3" gradientUnits="userSpaceOnUse" gradientTransform="matrix(4.60197222120268 0.0 0.0 4.60197222120268 0.0 0.0)" spreadMethod="pad" cx="75.10579503766972" cy="59.478678735929904" fx="75.10579503766972" fy="59.478678735929904" r="4.6019721031188965"><stop offset="0.0" stop-color="#3177ee"/><stop offset="1.0" stop-color="#113d8a"/></radialGradient></defs><path fill="url(#p.3)" d="m330.73175 273.71924l0 0c0 -8.310272 6.672333 -15.047058 14.903046 -15.047058l0 0c3.9525146 0 7.743164 1.5852966 10.538025 4.4071655c2.7948608 2.821869 4.36499 6.6491394 4.36499 10.639893l0 0c0 8.310242 -6.6723022 15.047058 -14.903015 15.047058l0 0c-8.230713 0 -14.903046 -6.7368164 -14.903046 -15.047058z" fill-rule="evenodd"/><defs><radialGradient id="p.4" gradientUnits="userSpaceOnUse" gradientTransform="matrix(4.60197222120268 0.0 0.0 4.60197222120268 0.0 0.0)" spreadMethod="pad" cx="77.99346806943838" cy="55.242658545655935" fx="77.99346806943838" fy="55.242658545655935" r="4.6019721031188965"><stop offset="0.0" stop-color="#3177ee"/><stop offset="1.0" stop-color="#113d8a"/></radialGradient></defs><path fill="url(#p.4)" d="m344.02075 254.22517l0 0c0 -8.310257 6.6723022 -15.047043 14.903015 -15.047043l0 0c3.9525452 0 7.743164 1.5852966 10.538025 4.407181c2.7948608 2.821869 4.36499 6.6491394 4.36499 10.639862l0 0c0 8.310257 -6.6723022 15.047073 -14.903015 15.047073l0 0c-8.230713 0 -14.903015 -6.7368164 -14.903015 -15.047073z" fill-rule="evenodd"/><defs><radialGradient id="p.5" gradientUnits="userSpaceOnUse" gradientTransform="matrix(4.60197222120268 0.0 0.0 4.60197222120268 0.0 0.0)" spreadMethod="pad" cx="72.3798413266074" cy="55.242658545655935" fx="72.3798413266074" fy="55.242658545655935" r="4.6019721031188965"><stop offset="0.0" stop-color="#3177ee"/><stop offset="1.0" stop-color="#113d8a"/></radialGradient></defs><path fill="url(#p.5)" d="m318.18698 254.22517l0 0c0 -8.310257 6.672333 -15.047043 14.903046 -15.047043l0 0c3.9525146 0 7.743164 1.5852966 10.538025 4.407181c2.7948608 2.821869 4.36499 6.6491394 4.36499 10.639862l0 0c0 8.310257 -6.6723022 15.047073 -14.903015 15.047073l0 0c-8.230713 0 -14.903046 -6.7368164 -14.903046 -15.047073z" fill-rule="evenodd"/><defs><radialGradient id="p.6" gradientUnits="userSpaceOnUse" gradientTransform="matrix(4.60197222120268 0.0 0.0 4.60197222120268 0.0 0.0)" spreadMethod="pad" cx="80.84663027842603" cy="59.478678735929904" fx="80.84663027842603" fy="59.478678735929904" r="4.6019721031188965"><stop offset="0.0" stop-color="#dcecd5"/><stop offset="1.0" stop-color="#93bc81"/></radialGradient></defs><path fill="url(#p.6)" d="m357.1509 273.71924l0 0c0 -8.310272 6.672333 -15.047058 14.903046 -15.047058l0 0c3.9525146 0 7.743164 1.5852966 10.538025 4.4071655c2.7948608 2.821869 4.36499 6.6491394 4.36499 10.639893l0 0c0 8.310242 -6.6723022 15.047058 -14.903015 15.047058l0 0c-8.230713 0 -14.903046 -6.7368164 -14.903046 -15.047058z" fill-rule="evenodd"/><defs><radialGradient id="p.7" gradientUnits="userSpaceOnUse" gradientTransform="matrix(4.60197222120268 0.0 0.0 4.60197222120268 0.0 0.0)" spreadMethod="pad" cx="109.53169564491114" cy="34.98102264644223" fx="109.53169564491114" fy="34.98102264644223" r="4.6019721031188965"><stop offset="0.0" stop-color="#dcecd5"/><stop offset="1.0" stop-color="#93bc81"/></radialGradient></defs><path fill="url(#p.7)" d="m489.15878 160.98169l0 0c0 -8.310257 6.672333 -15.047043 14.903046 -15.047043l0 0c3.9525146 0 7.743164 1.5852966 10.538025 4.407181c2.7948608 2.821869 4.36499 6.6491394 4.36499 10.639862l0 0c0 8.310257 -6.6723022 15.047058 -14.903015 15.047058l0 0c-8.230713 0 -14.903046 -6.736801 -14.903046 -15.047058z" fill-rule="evenodd"/><path fill="#000000" fill-opacity="0.0" d="m420.83466 178.07611l-81.82678 47.181107" fill-rule="evenodd"/><path stroke="#008000" stroke-width="4.0" stroke-linejoin="round" stroke-linecap="butt" d="m400.04327 190.06436l-61.0354 35.192856" fill-rule="evenodd"/><path fill="#008000" stroke="#008000" stroke-width="4.0" stroke-linecap="butt" d="m403.3435 195.78801l12.4253235 -14.790955l-19.025787 3.343689z" fill-rule="evenodd"/><path fill="#000000" fill-opacity="0.0" d="m421.32285 351.3491l-82.80316 -48.661438" fill-rule="evenodd"/><path stroke="#ffa500" stroke-width="4.0" stroke-linejoin="round" stroke-linecap="butt" d="m400.63135 339.1892l-62.111664 -36.501556" fill-rule="evenodd"/><path fill="#ffa500" stroke="#ffa500" stroke-width="4.0" stroke-linecap="butt" d="m397.28387 344.8853l18.997467 3.501007l-12.30249 -14.8932495z" fill-rule="evenodd"/><defs><radialGradient id="p.8" gradientUnits="userSpaceOnUse" gradientTransform="matrix(4.60197222120268 0.0 0.0 4.60197222120268 0.0 0.0)" spreadMethod="pad" cx="95.1256564722414" cy="79.81959138406545" fx="95.1256564722414" fy="79.81959138406545" r="4.6019721031188965"><stop offset="0.0" stop-color="#3177ee"/><stop offset="1.0" stop-color="#113d8a"/></radialGradient></defs><path fill="url(#p.8)" d="m422.8626 367.32755l0 0c0 -8.310272 6.6723022 -15.047058 14.903015 -15.047058l0 0c3.9525452 0 7.743164 1.5852966 10.538025 4.4071655c2.7948608 2.8218994 4.36499 6.64917 4.36499 10.639893l0 0c0 8.310242 -6.6723022 15.047058 -14.903015 15.047058l0 0c-8.230713 0 -14.903015 -6.7368164 -14.903015 -15.047058z" fill-rule="evenodd"/><defs><radialGradient id="p.9" gradientUnits="userSpaceOnUse" gradientTransform="matrix(4.60197222120268 0.0 0.0 4.60197222120268 0.0 0.0)" spreadMethod="pad" cx="97.86645786287231" cy="84.05561157433938" fx="97.86645786287231" fy="84.05561157433938" r="4.6019721031188965"><stop offset="0.0" stop-color="#3177ee"/><stop offset="1.0" stop-color="#113d8a"/></radialGradient></defs><path fill="url(#p.9)" d="m435.4757 386.8216l0 0c0 -8.310272 6.6723022 -15.047058 14.903015 -15.047058l0 0c3.9525146 0 7.743164 1.5852966 10.538025 4.4071655c2.7948608 2.821869 4.36499 6.64917 4.36499 10.639893l0 0c0 8.310242 -6.6723022 15.047058 -14.903015 15.047058l0 0c-8.230713 0 -14.903015 -6.7368164 -14.903015 -15.047058z" fill-rule="evenodd"/><defs><radialGradient id="p.10" gradientUnits="userSpaceOnUse" gradientTransform="matrix(4.60197222120268 0.0 0.0 4.60197222120268 0.0 0.0)" spreadMethod="pad" cx="103.36852636462051" cy="84.05561157433938" fx="103.36852636462051" fy="84.05561157433938" r="4.6019721031188965"><stop offset="0.0" stop-color="#3177ee"/><stop offset="1.0" stop-color="#113d8a"/></radialGradient></defs><path fill="url(#p.10)" d="m460.79605 386.8216l0 0c0 -8.310272 6.672333 -15.047058 14.903046 -15.047058l0 0c3.9525146 0 7.743164 1.5852966 10.538025 4.4071655c2.7948608 2.821869 4.36499 6.64917 4.36499 10.639893l0 0c0 8.310242 -6.6723022 15.047058 -14.903015 15.047058l0 0c-8.230713 0 -14.903046 -6.7368164 -14.903046 -15.047058z" fill-rule="evenodd"/><defs><radialGradient id="p.11" gradientUnits="userSpaceOnUse" gradientTransform="matrix(4.60197222120268 0.0 0.0 4.60197222120268 0.0 0.0)" spreadMethod="pad" cx="106.25619939638916" cy="79.81959138406545" fx="106.25619939638916" fy="79.81959138406545" r="4.6019721031188965"><stop offset="0.0" stop-color="#3177ee"/><stop offset="1.0" stop-color="#113d8a"/></radialGradient></defs><path fill="url(#p.11)" d="m474.08505 367.32755l0 0c0 -8.310272 6.6723022 -15.047058 14.903015 -15.047058l0 0c3.9525452 0 7.7431946 1.5852966 10.538025 4.4071655c2.7948608 2.8218994 4.3650208 6.64917 4.3650208 10.639893l0 0c0 8.310242 -6.672333 15.047058 -14.903046 15.047058l0 0c-8.230713 0 -14.903015 -6.7368164 -14.903015 -15.047058z" fill-rule="evenodd"/><defs><radialGradient id="p.12" gradientUnits="userSpaceOnUse" gradientTransform="matrix(4.60197222120268 0.0 0.0 4.60197222120268 0.0 0.0)" spreadMethod="pad" cx="100.64257265355819" cy="79.81959138406545" fx="100.64257265355819" fy="79.81959138406545" r="4.6019721031188965"><stop offset="0.0" stop-color="#3177ee"/><stop offset="1.0" stop-color="#113d8a"/></radialGradient></defs><path fill="url(#p.12)" d="m448.2513 367.32755l0 0c0 -8.310272 6.6723022 -15.047058 14.903015 -15.047058l0 0c3.9525146 0 7.743164 1.5852966 10.538025 4.4071655c2.7948608 2.8218994 4.36499 6.64917 4.36499 10.639893l0 0c0 8.310242 -6.6723022 15.047058 -14.903015 15.047058l0 0c-8.230713 0 -14.903015 -6.7368164 -14.903015 -15.047058z" fill-rule="evenodd"/><defs><radialGradient id="p.13" gradientUnits="userSpaceOnUse" gradientTransform="matrix(4.60197222120268 0.0 0.0 4.60197222120268 0.0 0.0)" spreadMethod="pad" cx="109.53169564491114" cy="84.05561157433938" fx="109.53169564491114" fy="84.05561157433938" r="4.6019721031188965"><stop offset="0.0" stop-color="#dcecd5"/><stop offset="1.0" stop-color="#93bc81"/></radialGradient></defs><path fill="url(#p.13)" d="m489.15878 386.8216l0 0c0 -8.310272 6.672333 -15.047058 14.903046 -15.047058l0 0c3.9525146 0 7.743164 1.5852966 10.538025 4.4071655c2.7948608 2.821869 4.36499 6.64917 4.36499 10.639893l0 0c0 8.310242 -6.6723022 15.047058 -14.903015 15.047058l0 0c-8.230713 0 -14.903046 -6.7368164 -14.903046 -15.047058z" fill-rule="evenodd"/><defs><radialGradient id="p.14" gradientUnits="userSpaceOnUse" gradientTransform="matrix(-4.60197222120268 0.0 0.0 4.60197222120268 0.0 0.0)" spreadMethod="pad" cx="-123.86383538617363" cy="79.81959138406545" fx="-123.86383538617363" fy="79.81959138406545" r="4.6019721031188965"><stop offset="0.0" stop-color="#f5d0d0"/><stop offset="1.0" stop-color="#d96868"/></radialGradient></defs><path fill="url(#p.14)" d="m584.92096 367.32755l0 0c0 -8.310272 -6.6723022 -15.047058 -14.903015 -15.047058l0 0c-3.9525146 0 -7.743164 1.5852966 -10.538025 4.4071655c-2.7948608 2.8218994 -4.36499 6.64917 -4.36499 10.639893l0 0c0 8.310242 6.6723022 15.047058 14.903015 15.047058l0 0c8.230713 0 14.903015 -6.7368164 14.903015 -15.047058z" fill-rule="evenodd"/><defs><radialGradient id="p.15" gradientUnits="userSpaceOnUse" gradientTransform="matrix(-4.60197222120268 0.0 0.0 4.60197222120268 0.0 0.0)" spreadMethod="pad" cx="-121.12303399554276" cy="84.05561157433938" fx="-121.12303399554276" fy="84.05561157433938" r="4.6019721031188965"><stop offset="0.0" stop-color="#f5d0d0"/><stop offset="1.0" stop-color="#d96868"/></radialGradient></defs><path fill="url(#p.15)" d="m572.30786 386.8216l0 0c0 -8.310272 -6.6723022 -15.047058 -14.903015 -15.047058l0 0c-3.9525146 0 -7.743164 1.5852966 -10.538025 4.4071655c-2.7948608 2.821869 -4.36499 6.64917 -4.36499 10.639893l0 0c0 8.310242 6.6723022 15.047058 14.903015 15.047058l0 0c8.230713 0 14.903015 -6.7368164 14.903015 -15.047058z" fill-rule="evenodd"/><defs><radialGradient id="p.16" gradientUnits="userSpaceOnUse" gradientTransform="matrix(-4.60197222120268 0.0 0.0 4.60197222120268 0.0 0.0)" spreadMethod="pad" cx="-115.62096549379454" cy="84.05561157433938" fx="-115.62096549379454" fy="84.05561157433938" r="4.6019721031188965"><stop offset="0.0" stop-color="#f5d0d0"/><stop offset="1.0" stop-color="#d96868"/></radialGradient></defs><path fill="url(#p.16)" d="m546.9875 386.8216l0 0c0 -8.310272 -6.6723022 -15.047058 -14.903015 -15.047058l0 0c-3.9525146 0 -7.743164 1.5852966 -10.538025 4.4071655c-2.7948608 2.821869 -4.36499 6.64917 -4.36499 10.639893l0 0c0 8.310242 6.6723022 15.047058 14.903015 15.047058l0 0c8.230713 0 14.903015 -6.7368164 14.903015 -15.047058z" fill-rule="evenodd"/><defs><radialGradient id="p.17" gradientUnits="userSpaceOnUse" gradientTransform="matrix(-4.60197222120268 0.0 0.0 4.60197222120268 0.0 0.0)" spreadMethod="pad" cx="-112.7332924620259" cy="79.81959138406545" fx="-112.7332924620259" fy="79.81959138406545" r="4.6019721031188965"><stop offset="0.0" stop-color="#f5d0d0"/><stop offset="1.0" stop-color="#d96868"/></radialGradient></defs><path fill="url(#p.17)" d="m533.6985 367.32755l0 0c0 -8.310272 -6.6723022 -15.047058 -14.903015 -15.047058l0 0c-3.9525146 0 -7.743164 1.5852966 -10.538025 4.4071655c-2.7948608 2.8218994 -4.36499 6.64917 -4.36499 10.639893l0 0c0 8.310242 6.6723022 15.047058 14.903015 15.047058l0 0c8.230713 0 14.903015 -6.7368164 14.903015 -15.047058z" fill-rule="evenodd"/><defs><radialGradient id="p.18" gradientUnits="userSpaceOnUse" gradientTransform="matrix(-4.60197222120268 0.0 0.0 4.60197222120268 0.0 0.0)" spreadMethod="pad" cx="-118.34691920485687" cy="79.81959138406545" fx="-118.34691920485687" fy="79.81959138406545" r="4.6019721031188965"><stop offset="0.0" stop-color="#f5d0d0"/><stop offset="1.0" stop-color="#d96868"/></radialGradient></defs><path fill="url(#p.18)" d="m559.5323 367.32755l0 0c0 -8.310272 -6.6723633 -15.047058 -14.903076 -15.047058l0 0c-3.9525146 0 -7.743164 1.5852966 -10.538025 4.4071655c-2.7948608 2.8218994 -4.36499 6.64917 -4.36499 10.639893l0 0c0 8.310242 6.6723022 15.047058 14.903015 15.047058l0 0c8.230713 0 14.903076 -6.7368164 14.903076 -15.047058z" fill-rule="evenodd"/><defs><radialGradient id="p.19" gradientUnits="userSpaceOnUse" gradientTransform="matrix(-4.60197222120268 0.0 0.0 4.60197222120268 0.0 0.0)" spreadMethod="pad" cx="-152.56372950484078" cy="54.53715251388409" fx="-152.56372950484078" fy="54.53715251388409" r="4.6019721031188965"><stop offset="0.0" stop-color="#f5d0d0"/><stop offset="1.0" stop-color="#d96868"/></radialGradient></defs><path fill="url(#p.19)" d="m716.9971 250.97845l0 0c0 -8.310257 -6.6723022 -15.047043 -14.903015 -15.047043l0 0c-3.9525146 0 -7.743164 1.5852966 -10.538025 4.407181c-2.7948608 2.821869 -4.36499 6.6491394 -4.36499 10.639862l0 0c0 8.310272 6.6723022 15.047058 14.903015 15.047058l0 0c8.230713 0 14.903015 -6.736786 14.903015 -15.047058z" fill-rule="evenodd"/><defs><radialGradient id="p.20" gradientUnits="userSpaceOnUse" gradientTransform="matrix(-4.60197222120268 0.0 0.0 4.60197222120268 0.0 0.0)" spreadMethod="pad" cx="-149.8229281142099" cy="58.77317270415806" fx="-149.8229281142099" fy="58.77317270415806" r="4.6019721031188965"><stop offset="0.0" stop-color="#f5d0d0"/><stop offset="1.0" stop-color="#d96868"/></radialGradient></defs><path fill="url(#p.20)" d="m704.384 270.4725l0 0c0 -8.310242 -6.6723022 -15.047058 -14.903015 -15.047058l0 0c-3.9525146 0 -7.743164 1.5853271 -10.538025 4.407196c-2.7948608 2.821869 -4.36499 6.6491394 -4.36499 10.639862l0 0c0 8.310272 6.6723022 15.047058 14.903015 15.047058l0 0c8.230713 0 14.903015 -6.736786 14.903015 -15.047058z" fill-rule="evenodd"/><defs><radialGradient id="p.21" gradientUnits="userSpaceOnUse" gradientTransform="matrix(-4.60197222120268 0.0 0.0 4.60197222120268 0.0 0.0)" spreadMethod="pad" cx="-144.32085961246167" cy="58.77317270415806" fx="-144.32085961246167" fy="58.77317270415806" r="4.6019721031188965"><stop offset="0.0" stop-color="#f5d0d0"/><stop offset="1.0" stop-color="#d96868"/></radialGradient></defs><path fill="url(#p.21)" d="m679.0636 270.4725l0 0c0 -8.310242 -6.6723022 -15.047058 -14.903015 -15.047058l0 0c-3.9525146 0 -7.743164 1.5853271 -10.538025 4.407196c-2.7948608 2.821869 -4.36499 6.6491394 -4.36499 10.639862l0 0c0 8.310272 6.6723022 15.047058 14.903015 15.047058l0 0c8.230713 0 14.903015 -6.736786 14.903015 -15.047058z" fill-rule="evenodd"/><defs><radialGradient id="p.22" gradientUnits="userSpaceOnUse" gradientTransform="matrix(-4.60197222120268 0.0 0.0 4.60197222120268 0.0 0.0)" spreadMethod="pad" cx="-141.43318658069302" cy="54.53715251388409" fx="-141.43318658069302" fy="54.53715251388409" r="4.6019721031188965"><stop offset="0.0" stop-color="#f5d0d0"/><stop offset="1.0" stop-color="#d96868"/></radialGradient></defs><path fill="url(#p.22)" d="m665.7746 250.97845l0 0c0 -8.310257 -6.6723022 -15.047043 -14.903015 -15.047043l0 0c-3.9525146 0 -7.743164 1.5852966 -10.538025 4.407181c-2.7948608 2.821869 -4.36499 6.6491394 -4.36499 10.639862l0 0c0 8.310272 6.6723022 15.047058 14.903015 15.047058l0 0c8.230713 0 14.903015 -6.736786 14.903015 -15.047058z" fill-rule="evenodd"/><defs><radialGradient id="p.23" gradientUnits="userSpaceOnUse" gradientTransform="matrix(-4.60197222120268 0.0 0.0 4.60197222120268 0.0 0.0)" spreadMethod="pad" cx="-147.04681332352402" cy="54.53715251388409" fx="-147.04681332352402" fy="54.53715251388409" r="4.6019721031188965"><stop offset="0.0" stop-color="#f5d0d0"/><stop offset="1.0" stop-color="#d96868"/></radialGradient></defs><path fill="url(#p.23)" d="m691.6084 250.97845l0 0c0 -8.310257 -6.6723633 -15.047043 -14.903076 -15.047043l0 0c-3.9525146 0 -7.743164 1.5852966 -10.538025 4.407181c-2.7948608 2.821869 -4.36499 6.6491394 -4.36499 10.639862l0 0c0 8.310272 6.6723022 15.047058 14.903015 15.047058l0 0c8.230713 0 14.903076 -6.736786 14.903076 -15.047058z" fill-rule="evenodd"/><defs><radialGradient id="p.24" gradientUnits="userSpaceOnUse" gradientTransform="matrix(4.60197222120268 0.0 0.0 4.60197222120268 0.0 0.0)" spreadMethod="pad" cx="138.93025174195122" cy="58.77317270415806" fx="138.93025174195122" fy="58.77317270415806" r="4.6019721031188965"><stop offset="0.0" stop-color="#dcecd5"/><stop offset="1.0" stop-color="#93bc81"/></radialGradient></defs><path fill="url(#p.24)" d="m624.45013 270.4725l0 0c0 -8.310242 6.6723022 -15.047058 14.903015 -15.047058l0 0c3.9525146 0 7.743164 1.5853271 10.538025 4.407196c2.7948608 2.821869 4.36499 6.6491394 4.36499 10.639862l0 0c0 8.310272 -6.6723022 15.047058 -14.903015 15.047058l0 0c-8.230713 0 -14.903015 -6.736786 -14.903015 -15.047058z" fill-rule="evenodd"/><path fill="#000000" fill-opacity="0.0" d="m653.41205 225.25722l-81.82672 -47.181107" fill-rule="evenodd"/><path stroke="#008000" stroke-width="4.0" stroke-linejoin="round" stroke-linecap="butt" d="m632.62067 213.26897l-61.03534 -35.192856" fill-rule="evenodd"/><path fill="#008000" stroke="#008000" stroke-width="4.0" stroke-linecap="butt" d="m629.32043 218.9926l19.025818 3.3436737l-12.425354 -14.790939z" fill-rule="evenodd"/><path fill="#000000" fill-opacity="0.0" d="m649.08923 296.1916l-82.80316 48.661438" fill-rule="evenodd"/><path stroke="#ffa500" stroke-width="4.0" stroke-linejoin="round" stroke-linecap="butt" d="m628.39777 308.35147l-62.111694 36.501556" fill-rule="evenodd"/><path fill="#ffa500" stroke="#ffa500" stroke-width="4.0" stroke-linecap="butt" d="m631.74524 314.0476l12.30249 -14.8932495l-18.997437 3.501007z" fill-rule="evenodd"/></g></svg>